# xmcd
# Track frame offsets:
# 32172
# 46713
# 59820
# 78457
# 92681
# 107845
# 124665
# 141985
# 160710
# 176664
# 196669
# 217442
#
# Disc length: 3286 seconds
# Revision: 0
# Processed by: cddbd v1.5.2PL0 Copyright (c) Steve Scherf et al.
# Submitted via: VisiTrax 2.11.3.279 - For more info visit www.synapsa.com
#
DISCID=b80b2a0c
DTITLE=Murphy. Norma O'Hara - Solid Gold
DYEAR=2016
DGENRE=Country
TTITLE0=Hall O'Fame
TTITLE1=Cutting Song. The
TTITLE2=I'm A Cowgirl
TTITLE3=Texas To Tamworth (Texas Waltz )
TTITLE4=Farther  Down The Line
TTITLE5=Warwick Rodeo
TTITLE6=Solid Gold
TTITLE7=Roughrider
TTITLE8=Bundarra Dust
TTITLE9=Paddy William
TTITLE10=Gone Drovin
TTITLE11='Moonbi Range
EXTD=
EXTT0=
EXTT1=
EXTT2=
EXTT3=
EXTT4=
EXTT5=
EXTT6=
EXTT7=
EXTT8=
EXTT9=
EXTT10=
EXTT11=
PLAYORDER=
